<?xml version="1.0" encoding="UTF-8"?>
<svg width="1200pt" height="1200pt" fill="currentColor" version="1.1" viewBox="0 0 1200 1200"
    xmlns="http://www.w3.org/2000/svg">
    <path d="m555 828.74c-18.75 0-33.75 7.5-33.75 15s15 15 33.75 15 33.75-7.5 33.75-15-15-15-33.75-15z" />
    <path d="m603.74 783.74c-18.75 0-33.75 7.5-33.75 15s15 15 33.75 15 33.75-7.5 33.75-15-18.75-15-33.75-15z" />
    <path d="m671.26 828.74c-18.75 0-33.75 7.5-33.75 15s15 15 33.75 15 33.75-7.5 33.75-15-15-15-33.75-15z" />
    <path d="m716.26 783.74c-18.75 0-33.75 7.5-33.75 15s15 15 33.75 15 33.75-7.5 33.75-15-15-15-33.75-15z" />
    <path d="m783.74 810c-18.75 0-33.75 7.5-33.75 15s15 15 33.75 15 33.75-7.5 33.75-15-15-15-33.75-15z" />
    <path d="m825 978.74c-15 0-30 15-30 30s15 30 30 30 30-15 30-30-15-30-30-30z" />
    <path
        d="m202.5 892.5v221.26c0 7.5 7.5 11.25 11.25 11.25h768.74c7.5 0 11.25-7.5 11.25-11.25v-228.76l-26.25-52.5 30-660v-86.25c0-7.5-7.5-11.25-11.25-11.25h-768.74c-7.5 0-15 7.5-15 11.25v86.25l30 660-26.25 52.5c-3.75 3.75-3.75 3.75-3.75 7.5zm622.5 172.5c-30 0-56.25-26.25-56.25-56.25s26.25-56.25 56.25-56.25 56.25 26.25 56.25 56.25-26.25 56.25-56.25 56.25zm93.75-15c0 3.75-3.75 7.5-7.5 7.5h-3.75c-3.75 0-7.5-3.75-7.5-7.5v-78.75c0-3.75 3.75-7.5 7.5-7.5h3.75c3.75 0 7.5 3.75 7.5 7.5zm-682.5-172.5 56.25-108.75h120v41.25c-11.25 3.75-22.5 7.5-22.5 11.25 0 7.5 15 15 33.75 15s33.75-7.5 33.75-15c0-3.75-7.5-11.25-22.5-11.25v-41.25h465l56.25 108.75zm191.26-255c-30 0-56.25 26.25-56.25 56.25 0 26.25 18.75 48.75 45 56.25v7.5h-116.25v-472.5h600v476.26h-461.26v-7.5c26.25-7.5 45-30 45-56.25 0-33.75-26.25-60-56.25-60zm-198.74-461.26v-60h742.5v60z" />
</svg>